<svg width="164" height="197" fill="none" xmlns="http://www.w3.org/2000/svg"><path d="M114.37 61.111c2.825-5.411 5.567-10.668 8.314-15.925 29.652 15.177 50.643 55.423 37.125 95.782-16.067 47.961-69.437 68.61-112.67 48.193-43.398-20.5-58.936-71.368-37.743-111.263 23.733-44.666 74.983-51.983 105.877-36.517-2.622 5.298-5.245 10.596-8.002 16.172-18.504-7.244-36.69-7.007-54.388 2.102-17.786 9.155-28.718 23.769-32.867 43.071-6.05 28.152 8.132 58.727 37.847 70.965 29.217 12.031 60.76.702 77.232-23.728 17.755-26.329 13.134-68.403-20.725-88.852z" fill="#00FEFF"/><path d="M98.394 74.36c-2.513 5.134-4.878 10.127-7.449 15.011-.339.646-1.866 1.192-2.621.984-12.56-3.483-25.314 4.16-29.95 15.162-4.165 9.877-1.209 23.091 7.078 29.771 11.906 9.591 27.53 7.857 36.927-4.092 7.963-10.122 6.806-25.554-2.838-34.421-2.149-1.974-2.668-3.265-1.07-5.9 2.494-4.113 4.463-8.554 6.653-12.855 15.638 8.243 25.94 31.365 18.296 52.489-9.182 25.366-36.577 35.681-59.063 25.767-22.86-10.08-32.962-37.977-21.786-60.532C54.05 72.559 80.237 66.269 98.394 74.36z" fill="#001E42"/><path d="M147 8.513c-2.483 4.981-4.852 9.744-7.237 14.502-.232.462-.547.883-.774 1.345-2.396 4.852-2.416 4.976-7.805 3.963-2.189-.41-3.196.25-4.176 2.156-12.797 24.932-25.676 49.822-38.524 74.728-1.854 3.589-3.676 7.199-5.513 10.793-.326-.047-.651-.099-.971-.145.057-.743-.098-1.59.207-2.213 2.632-5.433 5.342-10.83 8.032-16.237 5.177-10.43 10.355-20.865 15.537-31.3 6.52-13.12 13.045-26.24 19.631-39.496-1.455-1.719-2.958-3.381-4.31-5.152-.454-.592-.96-1.693-.712-2.202 3.133-6.405 6.411-12.742 9.73-19.255 1.027 1.117 2.122 1.927 2.72 3.018 2.592 4.732 6.907 5.386 11.625 5.277.744-.016 1.487.12 2.54.218z" fill="#001E42"/><path d="M83.819 104.153l-6.1 11.873c2.147 1.082 4.06 2.052 6.19 3.124 2.22-3.998 4.309-7.763 6.407-11.537 3.937 2.504 4.936 9.678 1.934 13.956-3.4 4.846-9.93 6.797-15.168 4.42-5.674-2.571-8.389-8.541-6.47-14.22 1.752-5.183 7.31-8.541 13.207-7.616z" fill="#00FEFF"/></svg>