<svg width="126" height="42" fill="none" xmlns="http://www.w3.org/2000/svg"><path d="M0 28.22V.776h9.385V28.22H0zM28.352 8.565v19.65h-9.305V8.565H12.24V.776h22.914V8.57h-6.802v-.004z" fill="#fff"/><path d="M33.082 20.505v-6.668h10.792v6.668H33.082z" fill="#fff"/><path d="M56.233 28.991c-2.19 0-4.32-.375-6.393-1.125-2.072-.75-3.827-1.757-5.262-3.022l5.671-6.123c.678.75 1.562 1.383 2.658 1.902 1.096.519 2.191.776 3.287.776 1.381 0 2.072-.427 2.072-1.278 0-.488-.3-.89-.898-1.203-.598-.31-1.931-.803-3.99-1.474-2.218-.724-3.964-1.692-5.24-2.91-1.276-1.211-1.919-2.92-1.919-5.114 0-1.627.343-3.07 1.039-4.322.69-1.252 1.61-2.242 2.758-2.966A13.269 13.269 0 0153.712.523 16.043 16.043 0 0157.84 0c1.852 0 3.722.362 5.61 1.086 1.892.724 3.537 1.718 4.945 2.983L62.608 9.92a6.494 6.494 0 00-2.248-1.727c-.897-.427-1.742-.64-2.52-.64-1.514 0-2.271.413-2.271 1.238 0 .388.18.68.545.872.366.192 1.096.47 2.192.833.756.257 1.355.458 1.799.601a22.78 22.78 0 011.778.68c.743.31 1.341.607 1.799.89.457.284.963.659 1.527 1.126.558.466.998.941 1.31 1.434.313.493.582 1.077.801 1.762.22.685.33 1.413.33 2.19 0 3.1-1.135 5.512-3.4 7.23-2.266 1.722-4.941 2.581-8.017 2.581zm26.944-9.611h-2.622v8.84h-9.27V.776h11.888c1.513 0 2.908.157 4.184.467a12.6 12.6 0 013.577 1.474c1.109.671 1.98 1.626 2.622 2.87.638 1.238.96 2.712.96 4.417 0 1.627-.322 3.061-.96 4.304-.638 1.239-1.5 2.224-2.582 2.944a11.922 11.922 0 01-3.6 1.609c-1.31.345-2.71.519-4.197.519zm-.664-11.434h-1.954v4.417h1.954c.783 0 1.447-.192 1.993-.58.546-.388.823-.955.823-1.705 0-1.422-.937-2.132-2.816-2.132zm32.065 20.274l-7.391-10.929h-.079v10.928h-9.073V.776h9.033v10.118h.079L114.539.776h10.951l-10.401 12.56L126 28.219h-11.422zM3.01 35.89l-.498.541a.86.86 0 00-.343-.266c-.15-.07-.295-.1-.444-.1a.944.944 0 00-.528.148.48.48 0 00-.23.436c0 .096.019.179.054.244a.502.502 0 00.18.18c.088.051.167.09.247.121.074.026.189.066.338.114.141.043.26.083.348.113.092.03.198.083.325.153.128.07.23.144.304.226.075.083.14.184.194.314.052.131.083.275.083.437 0 .436-.15.771-.444 1.007-.3.235-.669.353-1.118.353-.286 0-.563-.052-.827-.157A1.697 1.697 0 010 39.296l.546-.506c.105.14.246.253.418.34.176.088.347.131.519.131a.94.94 0 00.54-.157c.155-.104.234-.261.234-.475a.557.557 0 00-.03-.196.322.322 0 00-.106-.157 2.291 2.291 0 00-.141-.118 1.076 1.076 0 00-.22-.1c-.101-.04-.176-.066-.22-.083a3.825 3.825 0 00-.268-.083 3.038 3.038 0 01-.396-.148 1.885 1.885 0 01-.34-.214.88.88 0 01-.263-.349 1.254 1.254 0 01-.093-.497c0-.405.154-.715.462-.929.308-.214.678-.323 1.11-.323.223 0 .452.04.677.118.228.079.422.192.58.34zm2.006 3.908V35.54h.765v4.257h-.765zm2.921 0V35.54H9.13l1.118 3.023h.018l1.104-3.023h1.201v4.257h-.757v-3.42H11.8l-1.302 3.42h-.533l-1.284-3.42h-.013v3.42h-.73zm6.793 0V35.54h1.4c1.077 0 1.619.41 1.619 1.235 0 .44-.154.763-.462.963-.308.201-.709.301-1.206.301h-.59v1.762h-.76v-.004zm.766-2.399h.532c.634 0 .95-.21.95-.623 0-.227-.083-.384-.25-.467-.167-.083-.392-.127-.678-.127h-.559V37.4h.005zm4.144 2.399V35.54h.766v3.58h1.826v.672H19.64v.005zm4.312 0V35.54h2.842v.663h-2.08v1.082h1.97v.636h-1.97v1.204h2.19v.672h-2.952zm7.643 0V35.54h1.399c1.078 0 1.619.41 1.619 1.235 0 .44-.154.763-.462.963-.308.201-.709.301-1.206.301h-.59v1.762h-.76v-.004zm.765-2.399h.532c.634 0 .95-.21.95-.623 0-.227-.083-.384-.25-.467-.167-.083-.392-.127-.678-.127h-.558V37.4h.004zm3.938.258c0-.672.215-1.213.647-1.618.43-.406.98-.607 1.654-.607.678 0 1.236.201 1.668.607.43.405.65.942.65 1.617 0 .663-.215 1.2-.65 1.618-.436.42-.99.628-1.664.628-.668 0-1.218-.209-1.65-.628-.435-.414-.655-.955-.655-1.617zm.831 0c0 .457.137.833.414 1.125.273.296.63.44 1.06.44.436 0 .792-.148 1.07-.44.272-.297.413-.672.413-1.125 0-.445-.136-.816-.41-1.112-.272-.297-.628-.445-1.068-.445-.436 0-.792.148-1.065.444-.277.297-.413.668-.413 1.113zm6.556 2.141l-1.254-4.257h.836l.832 3.127h.013l.946-3.127h.787l.929 3.127h.013l.85-3.127h.813l-1.254 4.257h-.739l-1.008-3.193h-.013l-1.007 3.193h-.744zm6.485 0V35.54h2.843v.663h-2.081v1.082h1.97v.636h-1.97v1.204h2.19v.672H50.17zm4.91 0V35.54h1.492c.286 0 .545.04.774.114.23.074.423.205.577.397.154.192.233.427.233.71 0 .301-.088.55-.26.75a1.33 1.33 0 01-.721.402l1.144 1.888h-.924L56.4 38h-.558v1.801h-.761v-.004zm.766-2.425h.625c.616 0 .924-.205.924-.62 0-.209-.084-.357-.251-.444a1.299 1.299 0 00-.607-.13h-.691v1.194zm6.784.284c0-.672.216-1.213.647-1.618.431-.406.981-.607 1.654-.607.678 0 1.237.201 1.668.607.431.405.651.942.651 1.617 0 .663-.215 1.2-.651 1.618-.436.42-.99.628-1.663.628-.669 0-1.219-.209-1.65-.628-.44-.414-.656-.955-.656-1.617zm.832 0c0 .457.136.833.414 1.125.272.296.629.44 1.06.44.435 0 .792-.148 1.069-.44.273-.297.414-.672.414-1.125 0-.445-.137-.816-.41-1.112-.272-.297-.629-.445-1.069-.445-.435 0-.792.148-1.064.444-.278.297-.414.668-.414 1.113zm5.738 2.141V35.54h2.771v.663h-2.006v1.165h1.892v.636h-1.892v1.793h-.766zm7.413 0V35.54h.765v1.84h.018l1.795-1.84h1.03l-2.007 1.967 2.143 2.29h-1.073l-1.888-2.133h-.018v2.133h-.765zm5.394 0V35.54h1.012l1.993 3.188h.013V35.54h.766v4.257h-.973l-2.037-3.288h-.013v3.288h-.761zm5.733-2.141c0-.672.215-1.213.647-1.618.43-.406.98-.607 1.654-.607.677 0 1.236.201 1.667.607.432.405.651.942.651 1.617 0 .663-.215 1.2-.65 1.618-.436.42-.99.628-1.664.628-.669 0-1.219-.209-1.65-.628-.435-.414-.655-.955-.655-1.617zm.831 0c0 .457.137.833.414 1.125.273.296.63.44 1.06.44.436 0 .792-.148 1.07-.44.272-.297.413-.672.413-1.125 0-.445-.136-.816-.41-1.112-.272-.297-.628-.445-1.068-.445-.436 0-.792.148-1.065.444-.277.297-.414.668-.414 1.113zm6.556 2.141l-1.254-4.257h.836l.831 3.127h.014l.946-3.127h.787l.929 3.127h.013l.849-3.127h.814l-1.254 4.257h-.74l-1.007-3.193h-.013l-1.007 3.193h-.744zm6.485 0V35.54h.766v3.58h1.826v.672h-2.592v.005zm4.312 0V35.54h2.842v.663h-2.081v1.082h1.971v.636h-1.971v1.204h2.191v.672h-2.952zm4.91 0V35.54h1.522c.3 0 .581.04.85.114.268.074.519.192.752.349.233.157.422.38.563.667.141.288.207.62.207.999 0 .357-.071.676-.207.955a1.794 1.794 0 01-.559.671 2.612 2.612 0 01-.756.375 2.899 2.899 0 01-.845.127h-1.527zm.766-.663h.638c.167 0 .325-.013.475-.044a1.83 1.83 0 00.453-.148c.15-.07.277-.157.387-.266.106-.105.194-.249.26-.419a1.66 1.66 0 00.101-.593c0-.985-.559-1.478-1.672-1.478h-.638v2.948h-.004zm8.839-1.766v2.206c-.467.223-1.003.332-1.619.332-.691 0-1.254-.21-1.694-.624-.436-.419-.656-.96-.656-1.622 0-.667.22-1.208.66-1.614.44-.405.994-.61 1.672-.61.33 0 .642.048.933.144.29.096.523.226.699.392l-.528.567a1.328 1.328 0 00-.466-.31 1.615 1.615 0 00-.629-.122c-.445 0-.805.149-1.078.445-.273.297-.414.667-.414 1.112 0 .462.137.837.414 1.13.277.292.647.44 1.113.44.326 0 .612-.048.854-.148v-1.082h-.902v-.623h1.641v-.013zm2.142 2.429V35.54h2.843v.663h-2.081v1.082h1.971v.636h-1.971v1.204h2.191v.672h-2.953zm2.953 1.766H0V42h125.534v-.436z" fill="#00FEFF"/></svg>