<svg width="100" height="38" fill="none" xmlns="http://www.w3.org/2000/svg"><path d="M.789 23.108V1.405h7.356v21.703H.79zM23.015 7.566v15.542h-7.296V7.566h-5.334v-6.16H28.35v6.16h-5.334z" fill="#00FEFF"/><path d="M26.717 17.008v-5.273h8.46v5.273h-8.46zm18.153 6.713c-1.716 0-3.392-.296-5.027-.889-1.614-.593-2.984-1.39-4.107-2.39l4.444-4.844c.532.592 1.227 1.093 2.085 1.502.858.409 1.716.613 2.575.613 1.083 0 1.624-.337 1.624-1.012 0-.388-.235-.705-.705-.95s-1.512-.633-3.126-1.165c-1.737-.572-3.107-1.338-4.108-2.299-1.001-.96-1.502-2.31-1.502-4.046 0-1.288.266-2.422.797-3.403.552-1.001 1.277-1.788 2.176-2.36.9-.572 1.86-.991 2.882-1.257a12.219 12.219 0 013.25-.429c1.45 0 2.911.286 4.383.858 1.491.573 2.79 1.36 3.893 2.36l-4.537 4.63a4.895 4.895 0 00-1.778-1.35c-.695-.347-1.349-.52-1.962-.52-1.185 0-1.778.326-1.778.98 0 .307.143.542.43.705.285.143.858.358 1.716.644.593.205 1.063.368 1.41.49.347.103.807.277 1.38.522.592.245 1.062.48 1.41.705.367.225.766.52 1.195.889.45.368.797.746 1.042 1.134.246.388.45.858.613 1.41.184.531.276 1.103.276 1.717 0 2.452-.889 4.363-2.667 5.732-1.778 1.349-3.872 2.023-6.284 2.023zm21.127-7.602h-2.054v6.989h-7.265V1.405h9.319c1.185 0 2.278.123 3.28.368a9.604 9.604 0 012.789 1.165c.879.531 1.563 1.287 2.054 2.268.51.981.766 2.146.766 3.495 0 1.287-.255 2.421-.766 3.402-.49.981-1.165 1.758-2.023 2.33a9.345 9.345 0 01-2.82 1.287 12.995 12.995 0 01-3.28.399zm-.522-9.043h-1.532v3.494h1.532c.614 0 1.135-.153 1.564-.46.429-.306.644-.755.644-1.348 0-1.124-.736-1.686-2.208-1.686zM90.6 23.108l-5.794-8.644h-.062v8.644h-7.111V1.405h7.08v8h.062l5.793-8h8.584l-8.154 9.932 8.552 11.77H90.6zM3.403 30.976l-.437.352c-.256-.363-.629-.544-1.12-.544-.3 0-.569.09-.804.268-.235.18-.352.43-.352.751a.903.903 0 00.229.614c.057.06.149.125.276.191.133.067.236.113.307.138l.368.123c.174.056.286.094.337.115.056.015.158.053.307.114.153.062.258.116.314.162.061.04.143.104.245.191a.776.776 0 01.222.26c.046.087.087.195.123.322.04.128.061.269.061.422 0 .506-.176.894-.529 1.165a2.005 2.005 0 01-1.241.398c-.342 0-.667-.069-.973-.207A1.835 1.835 0 010 35.214l.475-.353a1.5 1.5 0 00.514.498c.214.123.457.184.728.184.311 0 .59-.092.835-.276a.924.924 0 00.368-.774.863.863 0 00-.085-.39.997.997 0 00-.176-.284 1.01 1.01 0 00-.314-.207A2.52 2.52 0 002 33.459c-.087-.03-.222-.074-.406-.13a4.873 4.873 0 01-.544-.2 2.635 2.635 0 01-.445-.268 1.11 1.11 0 01-.352-.43 1.564 1.564 0 01-.115-.62c0-.332.09-.613.268-.843.184-.235.401-.4.652-.498.255-.102.526-.153.812-.153.342 0 .649.064.92.191.27.123.475.279.613.468zm1.758 1.318v3.586H4.64v-3.586h.521zm-.008-1.64a.343.343 0 01.115.26.343.343 0 01-.115.261.346.346 0 01-.253.107.372.372 0 01-.26-.107.355.355 0 01-.107-.26c0-.103.035-.19.107-.261a.372.372 0 01.26-.107c.097 0 .182.035.253.107zm1.909 2.253c.107-.21.265-.378.475-.506.214-.133.45-.2.705-.2.541 0 .91.254 1.103.76.25-.506.67-.76 1.257-.76.444 0 .782.134 1.012.4.235.265.352.625.352 1.08v2.2h-.521v-1.986c0-.837-.31-1.256-.927-1.256-.348 0-.606.13-.774.39-.164.256-.246.57-.246.943v1.908h-.52v-2.092c0-.378-.064-.664-.192-.858-.123-.194-.348-.291-.675-.291-.275 0-.518.122-.728.368-.21.24-.314.585-.314 1.034v1.84h-.52v-2.798c0-.306-.011-.57-.032-.79h.499c.02.256.03.46.03.614h.016zm6.773 2.368v2.445h-.522v-5.426h.522v.62h.022c.144-.224.338-.398.583-.52.245-.128.5-.192.766-.192.552 0 1 .181 1.341.544.343.358.514.805.514 1.341 0 .537-.171.986-.514 1.349-.342.358-.789.536-1.34.536-.261 0-.514-.061-.76-.184a1.516 1.516 0 01-.59-.513h-.022zm2.306-.153c.246-.276.368-.621.368-1.035 0-.414-.122-.759-.368-1.034-.24-.276-.57-.414-.988-.414-.399 0-.728.138-.989.414-.26.275-.39.62-.39 1.034 0 .414.13.759.39 1.035.26.27.59.406.989.406.419 0 .748-.136.988-.406zm2.573-5.035v5.793h-.52v-5.793h.52zm1.686 3.724h2.445c-.016-.347-.128-.628-.338-.843-.204-.22-.488-.33-.85-.33-.337 0-.626.118-.866.353-.235.23-.366.504-.391.82zm2.973.169c0 .102-.002.184-.007.245h-2.974c.01.363.14.672.391.927.25.25.557.376.92.376a1.344 1.344 0 001.15-.62l.39.306c-.398.505-.912.758-1.54.758-.532 0-.973-.178-1.326-.536-.352-.358-.529-.807-.529-1.349 0-.536.174-.983.521-1.341a1.712 1.712 0 011.288-.544c.541 0 .963.169 1.264.506.302.332.452.756.452 1.272zm3.558 1.295v2.445h-.52v-5.426h.52v.62h.023c.143-.224.337-.398.583-.52.245-.128.5-.192.766-.192.552 0 .999.181 1.341.544.342.358.514.805.514 1.341 0 .537-.172.986-.514 1.349-.342.358-.79.536-1.341.536-.26 0-.513-.061-.759-.184a1.515 1.515 0 01-.59-.513h-.023zm2.307-.153c.245-.276.368-.621.368-1.035 0-.414-.123-.759-.368-1.034-.24-.276-.57-.414-.989-.414a1.3 1.3 0 00-.988.414c-.26.275-.391.62-.391 1.034 0 .414.13.759.39 1.035.261.27.59.406.99.406.418 0 .748-.136.988-.406zm5.056-2.384c.363.358.544.808.544 1.35 0 .54-.181.99-.544 1.348-.358.358-.815.536-1.372.536-.551 0-1.009-.178-1.371-.536-.358-.358-.537-.807-.537-1.349 0-.541.179-.991.537-1.349.362-.357.82-.536 1.371-.536.557 0 1.014.179 1.372.536zm-.383 2.384c.25-.276.375-.621.375-1.035 0-.414-.125-.759-.375-1.034-.25-.276-.58-.414-.989-.414-.403 0-.73.138-.98.414-.251.275-.376.62-.376 1.034 0 .409.125.751.375 1.027.25.276.578.414.981.414.409 0 .739-.136.989-.406zm1.559-2.828h.559l.865 2.912h.016l.965-2.912h.506l.981 2.912h.015l.859-2.912h.552l-1.135 3.586h-.567l-.958-2.904h-.015l-.943 2.904h-.567l-1.134-3.586zm6.498 1.517h2.445c-.015-.347-.128-.628-.337-.843-.205-.22-.488-.33-.85-.33-.338 0-.627.118-.867.353-.235.23-.365.504-.39.82zm2.974.169c0 .102-.003.184-.008.245h-2.973c.01.363.14.672.39.927.25.25.557.376.92.376a1.343 1.343 0 001.15-.62l.39.306c-.398.505-.911.758-1.54.758-.531 0-.973-.178-1.326-.536-.352-.358-.528-.807-.528-1.349 0-.536.173-.983.52-1.341a1.712 1.712 0 011.288-.544c.542 0 .963.169 1.265.506.301.332.452.756.452 1.272zm1.121-.897c0-.306-.01-.57-.031-.79h.498c.02.256.03.46.03.614h.016c.102-.21.256-.378.46-.506.21-.133.44-.2.69-.2.138 0 .253.014.345.04l-.07.49a1.11 1.11 0 00-.367-.046.952.952 0 00-.751.345c-.2.224-.3.562-.3 1.011v1.84h-.52v-2.798zm7.697-.345c.362.358.544.808.544 1.35 0 .54-.182.99-.544 1.348-.358.358-.815.536-1.372.536-.552 0-1.01-.178-1.372-.536-.358-.358-.536-.807-.536-1.349 0-.541.178-.991.536-1.349.363-.357.82-.536 1.372-.536.557 0 1.014.179 1.372.536zm-.384 2.384c.25-.276.376-.621.376-1.035 0-.414-.125-.759-.376-1.034-.25-.276-.58-.414-.988-.414-.404 0-.73.138-.981.414-.25.275-.376.62-.376 1.034 0 .409.126.751.376 1.027.25.276.577.414.98.414.41 0 .739-.136.99-.406zm3.566-2.828v.437H56.1v3.15h-.52v-3.15h-.752v-.437h.751v-.981c0-.414.102-.736.307-.966.204-.235.508-.352.912-.352.163 0 .306.018.429.053l-.092.46a1.28 1.28 0 00-.36-.053c-.26 0-.44.079-.537.237-.092.159-.138.386-.138.682v.92h.843zm3.383-2.207v3.824h.022l1.656-1.617h.75l-1.808 1.64 1.993 1.946h-.767l-1.824-1.885h-.023v1.885h-.52v-5.793h.52zm3.339 2.207h.498c.02.255.03.46.03.613h.016c.097-.204.26-.373.49-.506.236-.133.48-.2.736-.2.445 0 .782.134 1.012.4.235.265.352.625.352 1.08v2.2h-.52v-1.986c0-.403-.075-.712-.223-.927-.143-.22-.393-.33-.751-.33-.302 0-.56.123-.774.369-.21.24-.314.585-.314 1.034v1.84h-.521v-2.798c0-.306-.01-.57-.031-.79zm7.503.444c.363.358.544.808.544 1.35 0 .54-.181.99-.544 1.348-.358.358-.815.536-1.372.536-.552 0-1.009-.178-1.372-.536-.357-.358-.536-.807-.536-1.349 0-.541.179-.991.536-1.349.363-.357.82-.536 1.372-.536.557 0 1.014.179 1.372.536zm-.383 2.384c.25-.276.375-.621.375-1.035 0-.414-.125-.759-.375-1.034-.25-.276-.58-.414-.989-.414-.404 0-.73.138-.98.414-.251.275-.376.62-.376 1.034 0 .409.125.751.375 1.027.25.276.578.414.981.414.409 0 .738-.136.989-.406zm1.558-2.828h.56l.865 2.912h.016l.965-2.912h.506l.98 2.912h.016l.859-2.912h.551l-1.134 3.586h-.567l-.958-2.904h-.015l-.943 2.904h-.567l-1.134-3.586zm6.745-2.207v5.793h-.522v-5.793h.522zm1.685 3.724h2.445c-.016-.347-.128-.628-.338-.843-.204-.22-.487-.33-.85-.33-.337 0-.626.118-.866.353-.235.23-.365.504-.39.82zm2.974.169c0 .102-.003.184-.008.245h-2.974c.01.363.14.672.391.927.25.25.557.376.92.376a1.344 1.344 0 001.15-.62l.39.306c-.398.505-.912.758-1.54.758-.532 0-.973-.178-1.326-.536-.352-.358-.529-.807-.529-1.349 0-.536.174-.983.521-1.341a1.712 1.712 0 011.288-.544c.541 0 .963.169 1.264.506.302.332.453.756.453 1.272zm4.071 1.295c-.148.22-.345.39-.59.513a1.692 1.692 0 01-.767.184c-.551 0-.998-.178-1.34-.536-.343-.363-.514-.812-.514-1.349 0-.536.171-.983.513-1.341.343-.363.79-.544 1.341-.544.266 0 .522.064.767.192.245.122.442.296.59.52h.015v-2.827h.521v5.793h-.52v-.605h-.016zm-2.3-2.222c-.24.275-.36.62-.36 1.034 0 .414.12.759.36 1.035.246.27.578.406.997.406.398 0 .728-.136.989-.406.26-.276.39-.621.39-1.035 0-.414-.13-.759-.39-1.034a1.301 1.301 0 00-.989-.414c-.419 0-.751.138-.996.414zM89.562 37l.375-.4c.149.19.348.346.598.468.25.128.508.192.774.192.486 0 .84-.13 1.065-.391.225-.26.338-.6.338-1.02v-.674h-.016a1.4 1.4 0 01-.582.514 1.69 1.69 0 01-.774.191c-.552 0-.999-.17-1.341-.513-.343-.342-.514-.78-.514-1.31 0-.522.171-.961.514-1.319.347-.357.794-.536 1.34-.536.272 0 .53.064.775.192.25.122.444.296.582.52h.016v-.62h.52v3.556a2.122 2.122 0 01-.375 1.218c-.133.2-.334.358-.605.475-.266.118-.588.177-.966.177a2.44 2.44 0 01-.95-.192 2.292 2.292 0 01-.774-.529zm.835-3.955c-.24.27-.36.603-.36.996 0 .394.12.726.36.996.245.266.578.399.996.399.404 0 .734-.128.99-.383.26-.26.39-.598.39-1.012 0-.383-.133-.713-.399-.988a1.293 1.293 0 00-.98-.414c-.42 0-.752.135-.997.406zm4.483.766h2.444c-.016-.347-.128-.628-.337-.843-.205-.22-.488-.33-.851-.33-.337 0-.626.118-.866.353-.235.23-.365.504-.39.82zm2.973.169c0 .102-.003.184-.008.245H94.87c.01.363.14.672.391.927.25.25.557.376.92.376a1.343 1.343 0 001.15-.62l.39.306c-.398.505-.912.758-1.54.758-.532 0-.973-.178-1.326-.536-.352-.358-.529-.807-.529-1.349 0-.536.174-.983.521-1.341a1.712 1.712 0 011.288-.544c.541 0 .963.169 1.264.506.302.332.453.756.453 1.272z" fill="#00FEFF"/></svg>