<svg width="180" height="60" fill="none" xmlns="http://www.w3.org/2000/svg"><path d="M0 40.314V1.109h13.407v39.205H0zm40.503-28.078v28.071H27.21V12.235h-9.723V1.11H50.22v11.133h-9.717v-.007z" fill="#00FEFF"/><path d="M47.26 29.293v-9.526h15.418v9.526H47.26z" fill="#00FEFF"/><path d="M80.333 41.416c-3.13 0-6.172-.535-9.132-1.607s-5.469-2.51-7.518-4.317l8.102-8.747c.968 1.071 2.231 1.975 3.797 2.716 1.565.742 3.13 1.109 4.695 1.109 1.973 0 2.96-.61 2.96-1.825 0-.698-.427-1.271-1.282-1.72-.855-.442-2.76-1.146-5.7-2.105-3.169-1.035-5.664-2.418-7.487-4.156-1.823-1.732-2.74-4.174-2.74-7.307 0-2.324.49-4.386 1.483-6.174.987-1.788 2.3-3.202 3.941-4.237 1.64-1.034 3.4-1.8 5.28-2.298A22.918 22.918 0 0182.627 0c2.647 0 5.318.517 8.014 1.551 2.703 1.034 5.054 2.455 7.065 4.261l-8.265 8.361c-.855-1.034-1.93-1.857-3.212-2.467-1.282-.61-2.49-.916-3.602-.916-2.162 0-3.243.592-3.243 1.77 0 .554.258.971.78 1.245.521.274 1.565.673 3.13 1.19 1.08.368 1.936.655 2.57.86.635.206 1.484.523 2.54.972 1.062.442 1.917.866 2.57 1.27.654.406 1.377.941 2.181 1.608.799.667 1.427 1.346 1.873 2.05.447.704.83 1.539 1.144 2.517.315.978.472 2.018.472 3.127 0 4.43-1.622 7.875-4.859 10.33-3.237 2.46-7.058 3.687-11.452 3.687zm38.492-13.73h-3.746v12.628h-13.244V1.109h16.983c2.163 0 4.155.224 5.978.667a17.997 17.997 0 015.11 2.105c1.584.96 2.828 2.324 3.746 4.1.911 1.769 1.37 3.874 1.37 6.31 0 2.324-.459 4.374-1.37 6.15-.911 1.768-2.143 3.177-3.69 4.204a17.028 17.028 0 01-5.141 2.3c-1.873.491-3.872.74-5.996.74zm-.949-16.335h-2.791v6.31h2.791c1.118 0 2.068-.273 2.847-.828.779-.554 1.175-1.364 1.175-2.436 0-2.03-1.338-3.046-4.022-3.046zm45.807 28.963L153.124 24.7h-.113v15.613H140.05V1.109h12.904v14.453h.113l10.56-14.453h15.644L164.412 19.05 180 40.314h-16.317zM4.3 51.272l-.711.772a1.228 1.228 0 00-.49-.38 1.469 1.469 0 00-.635-.143 1.35 1.35 0 00-.754.212c-.22.137-.327.349-.327.623 0 .137.025.255.075.349.05.093.138.18.258.255a2.3 2.3 0 00.352.175c.107.037.27.093.484.162.201.062.37.118.496.162.132.043.283.118.466.218.182.1.326.205.433.324.107.118.201.261.277.448.075.187.12.393.12.623 0 .623-.215 1.103-.636 1.44-.427.336-.955.504-1.596.504-.409 0-.805-.075-1.182-.224a2.427 2.427 0 01-.93-.654l.78-.723c.15.2.351.361.596.486.252.124.497.187.742.187.296 0 .553-.075.773-.225.22-.15.333-.373.333-.679a.796.796 0 00-.044-.28.46.46 0 00-.15-.224 3.246 3.246 0 00-.202-.169 1.533 1.533 0 00-.314-.143c-.144-.056-.251-.093-.314-.118a5.463 5.463 0 00-.384-.118 4.35 4.35 0 01-.565-.212 2.678 2.678 0 01-.484-.306 1.256 1.256 0 01-.377-.498 1.791 1.791 0 01-.132-.71c0-.58.22-1.022.66-1.327.44-.305.968-.461 1.584-.461.32 0 .647.056.968.168.326.112.603.274.83.486zm2.865 5.582v-6.08H8.26v6.08H7.165zm4.174 0v-6.08h1.703l1.597 4.317h.025l1.577-4.317h1.716v6.08h-1.08V51.97h-.02l-1.86 4.884h-.76L12.4 51.97h-.019v4.884H11.34zm9.705 0v-6.08h1.998c1.54 0 2.313.585 2.313 1.763 0 .629-.22 1.09-.66 1.376-.44.287-1.012.43-1.722.43h-.842v2.517h-1.087v-.006zm1.093-3.426h.76c.906 0 1.358-.3 1.358-.891 0-.324-.12-.549-.358-.667-.239-.118-.56-.18-.968-.18h-.798v1.738h.006zm5.921 3.426v-6.08h1.093v5.114h2.609v.96h-3.702v.006zm6.16 0v-6.08h4.06v.947h-2.973v1.545h2.816v.91h-2.816v1.718h3.13v.96h-4.218zm10.917 0v-6.08h1.999c1.54 0 2.313.585 2.313 1.763 0 .629-.22 1.09-.66 1.376-.44.287-1.012.43-1.722.43h-.842v2.517h-1.088v-.006zm1.094-3.426h.76c.906 0 1.358-.3 1.358-.891 0-.324-.12-.549-.358-.667-.239-.118-.56-.18-.968-.18h-.798v1.738h.006zm5.625.367c0-.96.308-1.732.924-2.311.616-.58 1.402-.866 2.364-.866.967 0 1.766.286 2.382.866.616.58.93 1.345.93 2.311 0 .947-.308 1.713-.93 2.311-.623.598-1.415.897-2.376.897-.956 0-1.741-.299-2.357-.897-.622-.592-.937-1.364-.937-2.311zm1.188 0c0 .654.195 1.19.591 1.607.39.424.899.63 1.515.63.622 0 1.131-.212 1.527-.63.39-.423.59-.959.59-1.607 0-.635-.194-1.165-.584-1.589-.39-.423-.898-.635-1.527-.635-.622 0-1.131.212-1.521.635-.396.424-.59.954-.59 1.589zm9.365 3.059l-1.791-6.08h1.194l1.188 4.466h.019l1.351-4.466h1.125l1.326 4.466h.02l1.212-4.466h1.163l-1.791 6.08h-1.056l-1.44-4.56h-.018l-1.44 4.56h-1.062zm9.265 0v-6.08h4.06v.947h-2.973v1.545h2.816v.91h-2.816v1.718h3.13v.96h-4.217zm7.014 0v-6.08h2.131c.409 0 .78.056 1.107.161.326.106.603.293.823.567.22.275.333.611.333 1.016 0 .43-.126.785-.37 1.072-.252.28-.592.473-1.032.573l1.635 2.697h-1.32l-1.42-2.573h-.8v2.573h-1.087v-.006zm1.094-3.464h.893c.88 0 1.32-.293 1.32-.885 0-.299-.12-.51-.359-.635s-.528-.187-.867-.187h-.987v1.707zm9.692.405c0-.96.308-1.732.924-2.311.616-.58 1.402-.866 2.363-.866.968 0 1.767.286 2.382.866.616.58.93 1.345.93 2.311 0 .947-.307 1.713-.93 2.311-.622.598-1.414.897-2.375.897-.956 0-1.741-.299-2.357-.897-.629-.592-.937-1.364-.937-2.311zm1.188 0c0 .654.195 1.19.59 1.607.39.424.9.63 1.516.63.622 0 1.131-.212 1.527-.63.39-.423.59-.959.59-1.607 0-.635-.194-1.165-.584-1.589-.39-.423-.899-.635-1.527-.635-.622 0-1.131.212-1.521.635-.396.424-.59.954-.59 1.589zm8.196 3.059v-6.08h3.96v.947H99.95v1.663h2.703v.91H99.95v2.56h-1.094zm10.591 0v-6.08h1.094v2.629h.025l2.564-2.63h1.471l-2.866 2.81 3.061 3.27h-1.534l-2.696-3.046h-.025v3.047h-1.094zm7.706 0v-6.08h1.445l2.848 4.554h.019v-4.554h1.093v6.08h-1.389l-2.91-4.697h-.019v4.697h-1.087zm8.19-3.059c0-.96.308-1.732.923-2.311.616-.58 1.402-.866 2.364-.866.968 0 1.766.286 2.382.866.616.58.93 1.345.93 2.311 0 .947-.308 1.713-.93 2.311-.622.598-1.414.897-2.376.897-.955 0-1.741-.299-2.357-.897-.622-.592-.936-1.364-.936-2.311zm1.187 0c0 .654.195 1.19.591 1.607.39.424.899.63 1.515.63.622 0 1.131-.212 1.527-.63.39-.423.591-.959.591-1.607 0-.635-.195-1.165-.584-1.589-.39-.423-.899-.635-1.528-.635-.622 0-1.131.212-1.521.635-.396.424-.591.954-.591 1.589zm9.366 3.059l-1.792-6.08h1.194l1.188 4.466h.019l1.352-4.466h1.125l1.326 4.466h.019l1.213-4.466h1.163l-1.792 6.08h-1.056l-1.439-4.56h-.019l-1.439 4.56h-1.062zm9.264 0v-6.08h1.094v5.114h2.608v.96h-3.702v.006zm6.16 0v-6.08h4.06v.947h-2.973v1.545h2.816v.91h-2.816v1.718h3.13v.96h-4.217zm7.014 0v-6.08h2.175c.428 0 .83.056 1.213.161.384.106.742.275 1.075.499.333.224.603.542.805.953.201.411.295.885.295 1.427 0 .51-.101.965-.295 1.364a2.58 2.58 0 01-.799.96 3.72 3.72 0 01-1.081.535c-.389.119-.792.18-1.207.18h-2.181zm1.094-.947h.912c.238 0 .465-.019.678-.062a2.63 2.63 0 00.648-.212c.213-.1.396-.224.553-.38.151-.15.276-.355.371-.598.094-.25.144-.53.144-.848 0-1.407-.798-2.111-2.388-2.111h-.912v4.211h-.006zm12.627-2.523v3.152c-.666.318-1.433.474-2.313.474-.987 0-1.791-.3-2.42-.891-.622-.598-.936-1.37-.936-2.318 0-.953.314-1.725.943-2.305.628-.58 1.42-.872 2.388-.872.471 0 .918.069 1.332.206.415.137.748.324 1 .56l-.754.81a1.91 1.91 0 00-.667-.442 2.303 2.303 0 00-.898-.175c-.635 0-1.151.212-1.54.636-.39.423-.591.953-.591 1.588 0 .66.195 1.197.591 1.614.396.417.924.63 1.59.63.465 0 .873-.07 1.219-.213v-1.545h-1.288v-.89h2.344v-.02zm3.061 3.47v-6.08h4.061v.947h-2.973v1.545h2.815v.91h-2.815v1.718h3.13v.96h-4.218zm4.218 2.523H0V60h179.334v-.623z" fill="#001E42"/></svg>