<svg width="76" height="70" fill="none" xmlns="http://www.w3.org/2000/svg"><path fill="#fff" d="M0 0h76v70H0z"/><path fill="#00FEFF" d="M13 17h63v53H13z"/><path d="M28.862 55.856l-1.436-.642a11.81 11.81 0 01-5.683-5.386l-.5-.974a13.513 13.513 0 01-.226-.47l-4.244-.003c-2.787 0-5.57.01-8.358-.002-1.434-.008-1.599-.205-1.606-1.767-.008-1.656.109-1.822 1.523-1.827 3.916-.008 7.832-.008 11.748-.005a13.342 13.342 0 01.29-4.344l-3.6-.002c-2.827 0-5.657-.044-8.484.018-1.454.03-1.47-.823-1.5-1.902-.033-1.15.266-1.728 1.543-1.718 4.487.03 8.975.018 13.462.015a13.062 13.062 0 014.18-4.386c-.152.03-.325.049-.53.043-2.87-.056-5.744-.017-8.614-.017-2.87 0-5.744-.041-8.615.02-1.289.028-1.434-.662-1.416-1.692.018-1.005-.01-1.851 1.406-1.84 5.744.043 11.485.04 17.229 0 1.386-.011 1.431.79 1.431 1.822 0 .529-.035.974-.251 1.278a12.912 12.912 0 014.02-1.467c-.002-4.108-.007-8.219-.012-12.326-.772-.8-1.518-3.35-1.846-4.586a1.855 1.855 0 01.135-1.314c.388-.765 1.06-2.02 1.546-2.518l.157-.161v-.016c0-.557-.2-1.18-.495-1.659-.62-1.01-1.424-1.907-2.033-2.921-.477-.793-1.063-1.11-1.964-1.092-1.988.038-3.98-.043-5.965.033l-6.53-.002c-1.86-.064-3.726.056-5.584-.039-1.297-.066-2.183.3-2.76 1.524-.357.76-.961 1.393-1.377 2.13-.358.63-.86 1.323-.863 1.988-.048 16.404-.043 32.804-.033 49.208 0 1.587.566 2.134 2.172 2.137 7.744.01 15.485.007 23.229-.005 1.685-.003 2.22-.524 2.22-2.217V56.36a11.47 11.47 0 01-1.766-.503zM6.814 13.588c.01-1.554.442-2.024 1.936-2.03 5.371-.02 10.742-.02 16.112-.005 1.495.006 1.965.494 1.975 2.012.023 2.682.02 5.363 0 8.047-.013 1.585-.47 2.02-2.069 2.027-2.665.01-5.327.003-7.992.003v-.005c-2.665 0-5.328.01-7.993-.003-1.492-.007-1.959-.475-1.97-1.994a654.918 654.918 0 010-8.052zm9.878 44.993c-2.066-.062-3.652-1.787-3.556-3.87.092-2.002 1.78-3.53 3.823-3.46 2.035.07 3.599 1.708 3.558 3.728-.043 2.063-1.744 3.666-3.825 3.602z" fill="#001E42"/><path d="M24.848 46.973c-1.406-2.736-1.041-7.419 2.36-10.353 3.315-2.858 8.345-2.863 11.64.01 3.383 2.95 4.137 7.912 1.764 11.674-2.528 4.009-7.206 4.898-10.323 3.722.114-.133.208-.258.315-.368 1.368-1.38 2.739-2.758 4.104-4.138.807-.816.807-1.534-.002-2.355a404.677 404.677 0 00-2.94-2.95c-.71-.705-1.461-.703-2.177.01-1.455 1.453-2.899 2.912-4.348 4.37-.114.117-.236.227-.393.378zm26.812-32.15c-3.327 3.338-6.574 6.6-9.904 9.941 1.082.373 2.066.71 3.051 1.058 1.005.353 1.693 1.036 2.015 2.063.226.724.155 1.414-.396 1.969-.555.56-1.276.636-1.962.373-2.154-.823-4.307-1.66-6.42-2.58-1.021-.444-1.613-1.285-1.63-2.497-.036-2.341-.12-4.68-.216-7.022-.028-.705.183-1.26.672-1.75 2.277-2.281 4.539-4.576 6.815-6.857.813-.813 1.906-.72 2.891.248 1.16 1.143 2.297 2.314 3.45 3.464.507.514 1.032 1.007 1.634 1.59z" fill="#001E42"/><path d="M48.386 26.538c-.597-1.196-1.617-2.086-3.114-2.648.898-.872 1.728-1.657 2.535-2.467 2.873-2.886 5.729-5.787 8.607-8.665 1.556-1.557 3.414-2.053 5.482-1.263 2.043.78 3.122 2.364 3.274 4.545.081 1.163-.208 2.285-.957 3.182-.824.992-1.758 1.89-2.758 2.95-.536-.593-.985-1.163-1.505-1.656-1.262-1.197-3.062-1.503-4.45-.754-.845.457-1.477 1.152-1.939 2.006-.104.192-.28.384-.467.488a5.12 5.12 0 00-2.12 2.132c-.075.143-.157.3-.278.394-.75.583-1.508 1.15-2.31 1.756z" fill="#001E42"/><path d="M50.11 29.207c-.41-1.618.938-2.999 2.616-2.585-.195-.784-.104-1.451.48-2.057.591-.611 1.256-.708 2.06-.532 0-.14.018-.23-.002-.31-.271-1.011.322-1.684 1.061-2.182.599-.404 1.51-.32 2.157.291a80.514 80.514 0 013.61 3.615c.614.654.728 1.64.322 2.221-.62.887-1.193 1.317-2.223 1.071-.066-.015-.138-.003-.209-.003.069 1.994-.474 2.546-2.573 2.641.066 1.948-.797 2.812-2.592 2.551 0 .108-.017.212.003.307.228 1.002-.297 1.659-1.048 2.14-.749.48-1.561.304-2.158-.248a64.543 64.543 0 01-3.677-3.7c-.554-.602-.739-1.428-.262-2.172.508-.795 1.16-1.35 2.221-1.05.053.015.112.002.213.002zm-1.998 6.258l-4.828 4.844c-1.177-3.497-3.523-5.89-7.096-7.155.383-.397.72-.75 1.063-1.097.493-.501 1.003-.987 1.48-1.503.249-.271.467-.325.815-.179 1.276.532 2.553 1.066 3.858 1.526.614.217 1.286.26 1.929.399.154.033.385.105.428.217.399 1.071 1.237 1.784 1.998 2.564.124.128.246.266.353.383zM32.767 13.816c.19-.366.307-.8.583-1.082 2.236-2.293 4.503-4.555 6.754-6.83.368-.37.812-.493 1.315-.447 1.114.105 2.14 1.13 2.14 2.26 0 .403-.165.915-.437 1.196-2.239 2.316-4.52 4.588-6.79 6.874-.398.4-.88.516-1.423.414-1.135-.218-2.018-1.23-2.142-2.385z" fill="#001E42"/></svg>