<svg width="76" height="70" fill="none" xmlns="http://www.w3.org/2000/svg"><path fill="#fff" d="M0 0h76v70H0z"/><path fill="#00FEFF" d="M13 17h63v53H13z"/><path d="M59.368 28.54c1.176 0 2.294-.002 3.413 0 .986.001 1.335.344 1.342 1.33.006.743.016 1.486-.004 2.227-.019.7-.362 1.102-1.055 1.106-3.087.023-6.175.03-9.262-.017-.322-.004-.635-.405-.956-.615-.211-.138-.43-.376-.646-.378-3.11-.027-6.22-.029-9.33-.01-.237.002-.59.154-.686.34-.289.563-.735.705-1.3.702-.98-.006-1.964.029-2.943-.01-.798-.032-.636.51-.66.967-.028.482.026.83.673.806 1.123-.043 2.25.004 3.374-.019.51-.01.843.168 1.111.614.345.57.8 1.074 1.15 1.642.166.268.279.619.28.932.016 9.196.016 18.39.012 27.586 0 .951-.303 1.245-1.257 1.246-4.38.007-8.759.007-13.14.003-.908-.002-1.228-.308-1.228-1.201-.006-9.22-.009-18.438.018-27.658.002-.375.286-.765.488-1.118.236-.414.58-.77.78-1.197.326-.688.827-.893 1.56-.856 1.052.053 2.107-.015 3.16.021.752.026.618-.48.633-.918.014-.448.043-.88-.632-.847-.717.034-1.436.007-2.154.004-.54-.002-.963-.155-1.212-.711-.076-.171-.402-.328-.614-.33-3.423-.02-6.846-.02-10.267.004-.224.001-.446.242-.67.375-.364.218-.724.623-1.092.629-3.015.05-6.03.03-9.046.024-.695-.001-1.08-.379-1.101-1.06-.028-.86-.032-1.726.008-2.585.033-.705.4-1.018 1.119-1.027a78.1 78.1 0 013.015.003c.496.013.712-.171.674-.664a2.283 2.283 0 01.003-.431c.068-.585-.163-.799-.77-.789-2.01.03-4.02.012-6.03.01h-.79c-1.176-.003-1.331-.153-1.333-1.314-.001-.838-.007-1.677.002-2.515.008-.833.232-1.066 1.07-1.069 2.49-.008 4.978-.004 7.468-.004 4.978 0 9.957-.001 14.934.006 1.095.001 1.23.153 1.232 1.26.002.862.008 1.724-.005 2.586-.013.848-.217 1.047-1.082 1.049-3.781.004-7.563-.003-11.343.01-.313.001-.866.062-.893.187-.105.474-.066.988-.012 1.481.009.082.356.177.549.181.79.022 1.583-.037 2.366.033.336.03.792.223.942.486.248.436.537.533.979.531 3.302-.008 6.606-.008 9.908.002.415.001.682-.08.907-.506.142-.267.602-.51.922-.514 3.062-.038 6.126-.038 9.19.003.317.004.763.258.916.528.239.417.52.489.928.487 3.062-.011 6.126-.003 9.188-.034.237-.003.468-.275.707-.413.349-.2.687-.523 1.058-.564.78-.088 1.578-.048 2.366-.022.475.016.658-.178.626-.632a2.273 2.273 0 01.001-.43c.08-.62-.163-.829-.804-.824-3.829.027-7.658.014-11.487.013-1.206 0-1.33-.122-1.335-1.3-.003-.79-.005-1.581.001-2.371.007-1.076.164-1.229 1.267-1.23 6.724-.002 13.45-.002 20.176-.002.765 0 1.532.006 2.297.002.65-.003.968.3.958.965-.015.982.004 1.965-.006 2.946-.007.74-.248.983-1 .985-2.225.009-4.452.003-6.677.005-1.015 0-1.018.001-1.005 1.018.002.26.033.518.056.85zM36.045 45.995V46c1.507 0 3.013.005 4.52-.001.905-.003 1.165-.249 1.17-1.14.012-1.507.012-3.015.002-4.523-.006-.853-.273-1.127-1.117-1.13a1384.42 1384.42 0 00-9.114.003c-.847.002-1.091.267-1.095 1.14-.009 1.508-.01 3.016 0 4.523.005.854.27 1.117 1.114 1.121 1.505.009 3.012.004 4.52.004zm-.005 9.441c1.6 0 3.2.006 4.8-.003.817-.004.9-.109.9-.994 0-.9-.083-1.016-.876-1.018-3.2-.006-6.399.012-9.598-.01-.722-.005-.891.318-.872.965.017.606.025 1.086.848 1.069 1.598-.033 3.199-.009 4.798-.009zm.002 4.467c1.6 0 3.198.006 4.798-.003.81-.004.897-.115.899-1 .001-.91-.076-1.016-.876-1.017-3.199-.007-6.4-.007-9.598 0-.8.002-.866.095-.861 1.027.004.878.096.99.908.993 1.578.004 3.153 0 4.73 0zm.031-8.932c1.624 0 3.25-.022 4.873.01.731.014.803-.388.803-.959 0-.58-.026-1.028-.81-1.024-3.25.023-6.497.023-9.746 0-.8-.006-.785.468-.795 1.035-.01.579.073.965.8.95 1.625-.035 3.25-.01 4.875-.012zM48.88 22.966c-1.004 0-2.009.002-3.012 0-.526-.001-.806.242-.797.783.004.239-.004.479-.001.717.011.857.135.983 1.016.986 1.722.006 3.443.003 5.165.001 1.312 0 1.356-.047 1.345-1.385a13.66 13.66 0 01-.003-.287c.004-.568-.28-.825-.844-.819-.957.012-1.913.004-2.869.004zM23.2 25.455c.908 0 1.815.004 2.723-.002.913-.005 1.009-.109 1.015-1.049.001-.143-.013-.287.001-.43.069-.697-.227-1.006-.942-1-1.718.017-3.438-.006-5.157-.01-1.381-.002-1.437.058-1.416 1.47.002.071.003.143.003.215-.007.566.26.822.836.81.98-.02 1.958-.006 2.938-.004zm12.947 36.064c-1.155-.04-2.11.82-2.163 1.944a2.065 2.065 0 002.012 2.175c1.178.035 2.14-.865 2.163-2.023.022-1.136-.862-2.057-2.012-2.096zM14.04 25.244c.539-.015.981-.474.984-1.02a1.016 1.016 0 00-1.057-1.018c-.541.02-1.002.492-.998 1.019.005.553.51 1.034 1.071 1.019zm44.994-1.04c-.005-.562-.487-1-1.086-.985a.998.998 0 00-.956 1.03c.017.548.465.99 1.005.993a1.04 1.04 0 001.037-1.039zm6.119 1.041a1.05 1.05 0 001.03-1.049 1.034 1.034 0 00-1.013-.99 1.026 1.026 0 00-1.025.974 1.03 1.03 0 001.008 1.065zM7.855 24.231a.999.999 0 00-1.032-1.026 1.033 1.033 0 00-.992 1.01c.001.537.45 1.01.978 1.03a1.008 1.008 0 001.046-1.014zm3.581-.012a.992.992 0 00-.993-1.013.988.988 0 00-1.02.983c-.014.605.43 1.062 1.022 1.052.556-.01.988-.456.991-1.022zm51.157.042a1 1 0 00-.955-1.053c-.58-.038-1.058.422-1.06 1.018-.001.56.438 1.01.991 1.018a.997.997 0 001.024-.983zM16.396 3h9.336c1.336.002 1.615.28 1.615 1.589-.002 4.55 0 9.1-.002 13.652 0 1.28-.284 1.58-1.552 1.58-6.295.006-12.591.006-18.887.003-1.181 0-1.5-.32-1.5-1.488-.004-4.6-.004-9.197-.003-13.796 0-1.262.289-1.538 1.585-1.54h9.408zm-.033 2.152v.007c-2.442 0-4.883-.013-7.323.006-1.155.008-1.659.527-1.664 1.686-.013 3.018-.013 6.035-.002 9.054.005 1.267.542 1.8 1.79 1.801 4.764.006 9.527.006 14.29 0 1.413-.001 1.95-.546 1.953-1.964.006-2.873.006-5.747-.001-8.622-.003-1.465-.514-1.964-2.005-1.967-2.346-.006-4.692-.001-7.038-.001zM55.75 3c3.133 0 6.267-.002 9.4.002 1.128.002 1.47.325 1.473 1.447.01 4.641.01 9.283.003 13.924-.002 1.115-.352 1.453-1.473 1.454-6.315.003-12.63.003-18.944-.002-1.253 0-1.547-.311-1.549-1.59-.002-4.547-.002-9.093 0-13.64.002-1.307.293-1.59 1.617-1.591C49.436 2.999 52.593 3 55.75 3zm-.098 14.708c2.346 0 4.692.003 7.038-.002 1.443-.003 1.975-.503 1.98-1.928a992.74 992.74 0 000-8.766c-.005-1.353-.527-1.859-1.885-1.86a6767.44 6767.44 0 00-14.291.001c-1.344.002-1.867.526-1.87 1.875a1803.7 1803.7 0 000 8.766c.003 1.382.532 1.907 1.92 1.91 2.369.01 4.74.004 7.108.004z" fill="#001E42"/></svg>