<svg width="76" height="70" fill="none" xmlns="http://www.w3.org/2000/svg"><path fill="#fff" d="M0 0h76v70H0z"/><path fill="#00FEFF" d="M13 17h63v53H13z"/><path d="M56.781 13.621h-.036v.36h.036v-.36zM41.755 32.45v-.752l-1.23-1.889-1.033.657 1.037 1.593v.392H30.137v-3.958c.288-.316.454-.717.454-1.149 0-.948-.781-1.72-1.74-1.72h-.005c-.465 0-.903.18-1.23.504a1.69 1.69 0 00-.061 2.369v1.637a11.275 11.275 0 005.15 4.598h9.26a11.26 11.26 0 003.336-2.273h-3.546v-.008zM29.22 27.713a.575.575 0 01-.166.112h-.417a.522.522 0 01.202-1.004.53.53 0 01.53.524.469.469 0 01-.15.368zm15.272 15.139a20.01 20.01 0 01-2.583.788v2.03c-.283.308-.45.7-.453 1.124v.056c.016.448.206.864.538 1.173.316.292.729.452 1.162.452h.052c.438.008.891-.164 1.223-.48a1.67 1.67 0 00.518-1.193v-.024a1.704 1.704 0 00-.453-1.1v-2.826h-.004zm-.915 4.282a.476.476 0 01-.352.14h-.057a.488.488 0 01-.348-.128.488.488 0 01-.154-.344.493.493 0 01.49-.488h.044a.505.505 0 01.527.484.465.465 0 01-.15.336zm-7.283-2.989a20.387 20.387 0 01-2.582-.3v1.808a1.675 1.675 0 00-.466 1.141v.056a1.672 1.672 0 001.138 1.529v3.918a.3.3 0 01-.304.296H1v1.2h33.1a1.506 1.506 0 001.498-1.5v-3.918a1.709 1.709 0 001.138-1.569v-.024a1.68 1.68 0 00-.441-1.085v-1.552zm-1.279 3.13h-.073a.486.486 0 01-.485-.477.494.494 0 01.49-.488h.044a.5.5 0 01.526.484.483.483 0 01-.502.48z" fill="#001E42"/><path d="M2.28 46.566c4.55.004 9.096.004 13.646-.004.992 0 1.303-.304 1.303-1.277v-7.612h3.692v1.91c0 1.04.854 1.884 1.907 1.884h2.688v4.198c-.284.309-.45.7-.454 1.125v.056c.016.448.207.864.539 1.173.315.292.728.452 1.161.452h.077c.45 0 .875-.168 1.194-.48a1.67 1.67 0 00.519-1.193v-.024a1.704 1.704 0 00-.454-1.1v-3.739a19.931 19.931 0 01-3.983-2.733h-.895v-.84a20.026 20.026 0 01-2.299-2.75v.853h-3.688c0-6.492-.004-12.987-.012-19.478 0-.32-.117-.68-.291-.956-.364-.585-.838-1.101-1.194-1.685-.28-.457-.624-.64-1.154-.629-.842.016-10.019.024-10.618-.008-.76-.036-1.283.172-1.62.88-.21.437-.566.805-.809 1.23-.21.364-.506.764-.506 1.148-.032 9.453-.028 18.91-.024 28.366 0 .917.332 1.233 1.275 1.233zm24.146-.112a.494.494 0 01.34-.14h.045a.51.51 0 01.526.484.469.469 0 01-.154.336.464.464 0 01-.352.14h-.057a.488.488 0 01-.348-.128.488.488 0 01-.153-.344.495.495 0 01.153-.348zM9.044 45.177C7.83 45.141 6.9 44.15 6.956 42.948c.052-1.153 1.044-2.037 2.246-1.993 1.194.04 2.113.985 2.089 2.15-.024 1.184-1.024 2.108-2.247 2.072zm5.028-5.887c-1.66.008-3.323.004-4.983.004-1.636 0-3.271.004-4.91 0-.842-.004-.94-.116-.944-1.02-.004-.957.065-1.053.895-1.053 3.323-.008 6.643-.008 9.966 0 .83 0 .911.108.911 1.045 0 .908-.093 1.02-.935 1.024zM3.239 19.232c.005-.896.26-1.168 1.138-1.172 3.153-.012 6.31-.012 9.464-.005.879.005 1.154.285 1.162 1.161.012 1.545.012 3.094 0 4.642-.008.913-.275 1.165-1.214 1.169-1.567.004-3.13 0-4.696 0v-.004c-1.567 0-3.13.004-4.696-.004-.878-.004-1.15-.272-1.158-1.149a442.674 442.674 0 010-4.638zm.814 8.873c3.372.024 6.748.024 10.12 0 .814-.004.842.456.842 1.048 0 .584-.077.997-.834.985-1.688-.032-3.372-.012-5.06-.012-1.688 0-3.376-.024-5.06.012-.757.016-.842-.38-.834-.977.012-.576-.004-1.06.826-1.056zm.077 4.53c3.323.024 6.647.004 9.966.008.822 0 .911.12.911 1.044 0 .909-.085 1.017-.935 1.02-1.66.009-3.323.005-4.983.005-1.66 0-3.324-.024-4.983.012-.854.02-.862-.476-.883-1.097-.02-.664.158-.996.907-.992zm39.273-15.168c-1.943 0-3.886-.004-5.83.004-.655.004-.83.18-.837.825-.008.644-.004 1.292 0 1.937 0 .892.121 1.012 1.04 1.012h.615c.705 0 1.409.004 2.113.004h.025v3.454a1.7 1.7 0 00-.62.388 1.69 1.69 0 00-.514 1.22c0 .85.632 1.553 1.45 1.694l1.032 1.58 1.028-.656-.781-1.196a1.69 1.69 0 00.761-1.42 1.72 1.72 0 00-1.13-1.606v-3.458c.45 0 .895 0 1.344-.008.081 0 .154.004.219.012h4.809a10.997 10.997 0 00-2.053-3.782c-.89 0-1.78-.004-2.671-.004zm-4.477 2.678a.81.81 0 01-.761-.793c0-.412.356-.768.773-.78.453-.012.81.34.805.792a.78.78 0 01-.817.78zm2.59 6.539a.527.527 0 01-.372.152.528.528 0 01-.53-.52.527.527 0 01.526-.524.53.53 0 01.53.524.487.487 0 01-.154.368zm.247-6.543a.768.768 0 01-.797-.809.767.767 0 01.793-.756.77.77 0 01.777.78c0 .436-.34.78-.773.785zm2.806.004c-.438.012-.834-.36-.834-.785-.004-.408.356-.768.777-.784a.79.79 0 01.826.784.799.799 0 01-.77.785zm-6.74-5.327c0 .9.247 1.149 1.17 1.149h5.566a11.319 11.319 0 00-2.652-1.633h-1.15c-.728 0-1.145-.232-1.311-.757-.53-.1-1.073-.16-1.62-.184-.003.476-.003.949-.003 1.425zm1.809-9.777c.21-.248.543-.372 1.032-.376 1.907-.016 3.81-.004 5.716-.004v-.004c1.83 0 3.66-.004 5.493 0 1.162.004 1.563.388 1.563 1.517.004 2.217.004 4.43 0 6.647 0 .076-.008.144-.012.216a19.225 19.225 0 011.465 2.337c.04-.164.057-.368.057-.624V4.225c0-1.009-.219-1.225-1.26-1.225H39.064c-1.012 0-1.234.212-1.234 1.185v.736c.607.012 1.21.052 1.81.12z" fill="#001E42"/><path d="M49.948 12.065c-6.958-6.88-18.276-6.88-25.235 0-6.958 6.879-6.954 18.069.004 24.948 6.177 6.107 15.787 6.788 22.738 2.05l16.467 17.96c1.474 1.457 4.072 1.249 5.805-.46 1.732-1.713 1.943-4.282.465-5.739L51.92 34.692c4.906-6.88 4.25-16.476-1.972-22.627zM46.75 33.846c-5.193 5.135-13.641 5.135-18.835 0a13.075 13.075 0 010-18.62c5.194-5.136 13.642-5.136 18.835 0 5.194 5.138 5.194 13.49 0 18.62z" fill="#001E42"/></svg>