<svg width="76" height="70" fill="none" xmlns="http://www.w3.org/2000/svg"><path fill="#fff" d="M0 0h76v70H0z"/><path fill="#00FEFF" d="M13 17h63v53H13z"/><path d="M23.591 57.022c-5.002-.007-10.004-.005-15.006-.005-2.502 0-5.002-.004-7.504.005-.843.004-1.068.235-1.076 1.073-.01.841-.004 1.683-.002 2.524.002 1.16.158 1.315 1.324 1.32H7.14c.353-.002.705-.005 1.058-.01a1.55 1.55 0 01.233.01h10.268c1.68 0 3.36 0 5.04-.002.867-.002 1.074-.203 1.085-1.054.013-.865.007-1.73.005-2.596-.001-1.11-.138-1.263-1.237-1.265zM2.82 60.504c-.531-.02-.98-.493-.982-1.033a1.037 1.037 0 01.996-1.016 1.003 1.003 0 011.038 1.03 1.013 1.013 0 01-1.052 1.02zm3.655-.003c-.595.01-1.042-.448-1.026-1.056a.992.992 0 011.025-.986 1 1 0 01.998 1.017 1.015 1.015 0 01-.997 1.025zm3.612.001c-.564.015-1.07-.467-1.076-1.022-.004-.53.458-1.002 1.002-1.023a1.02 1.02 0 011.061 1.021 1.03 1.03 0 01-.987 1.024zm12.963-1.274c-.015.143 0 .289-.002.431-.008.943-.104 1.047-1.021 1.052-.912.006-1.823.002-2.735.002-.984-.002-1.968-.015-2.951.004-.579.011-.847-.246-.84-.814.002-.072-.002-.144-.002-.216-.022-1.416.034-1.476 1.422-1.474 1.727.004 3.455.026 5.182.01.717-.004 1.017.305.947 1.005zm39.947-.941c-.002-1.11-.139-1.263-1.237-1.265-5.002-.007-10.004-.005-15.006-.005-2.502 0-5.002-.004-7.504.005-.843.004-1.069.235-1.076 1.073-.01.841-.004 1.683-.002 2.524.002 1.16.157 1.315 1.324 1.32h5.812c.353-.002.705-.005 1.058-.01a1.55 1.55 0 01.233.01h10.268c1.68 0 3.36 0 5.04-.002.867-.002 1.074-.203 1.085-1.054.013-.863.007-1.73.005-2.596zm-22.01 2.217c-.531-.02-.98-.493-.982-1.033A1.037 1.037 0 0141 58.455a1.003 1.003 0 011.038 1.03 1.011 1.011 0 01-1.053 1.02zm3.655-.003c-.595.01-1.043-.448-1.026-1.056a.992.992 0 011.025-.986 1 1 0 01.998 1.017 1.015 1.015 0 01-.997 1.025zm3.612.001c-.564.015-1.07-.467-1.076-1.022-.004-.53.458-1.002 1.002-1.023a1.02 1.02 0 011.061 1.021 1.03 1.03 0 01-.987 1.024zm12.963-1.274c-.015.143 0 .289-.002.431-.008.943-.104 1.047-1.021 1.052-.912.006-1.823.002-2.735.002-.984-.002-1.968-.015-2.951.004-.58.011-.847-.246-.84-.814.002-.072-.002-.144-.002-.216-.022-1.416.034-1.476 1.422-1.474 1.727.004 3.455.026 5.182.01.719-.004 1.017.305.947 1.005zM46.449 33.516c.31.179.614.466.945.503.695.077 1.982.042 2.685.018a.516.516 0 01.172.013h-.137v4.116H41.17c-1.302 0-1.593.28-1.593 1.544-.001 4.618-.001 9.235 0 13.852 0 1.173.32 1.495 1.51 1.495 6.325.003 12.651.001 18.977-.004 1.275-.002 1.56-.301 1.561-1.587.002-4.569 0-9.138.002-13.708 0-1.313-.28-1.592-1.622-1.594h-7.759v-4.121h3.047c.88-.002 1.191-.307 1.199-1.188.005-.662.015-1.324-.004-1.986-.017-.623-.324-.982-.941-.987-2.755-.02-5.512-.026-8.268.015-.286.004-.566.36-.852.549-.189.124-.383.335-.577.336-2.776.025-5.551.026-8.329.008-.21-.002-.527-.137-.612-.303-.259-.502-.656-.63-1.16-.625-.876.005-1.752-.026-2.627.009-.653.026-.586-.377-.588-.758h.031v-2.614h13.786v-.008c.105.004.21.008.316.008a7.994 7.994 0 002.596-15.556 7.94 7.94 0 00.566-2.953 7.997 7.997 0 00-14.432-4.737 7.977 7.977 0 00-3.342-.733c-1.551 0-3 .444-4.225 1.21a7.992 7.992 0 00-11.755 6.792 7.993 7.993 0 00.258 15.98H30.43v2.476a.321.321 0 00-.035.138c.012.4.038.786-.564.757-.64-.03-1.282-.008-1.924-.004-.482.002-.86.139-1.081.634-.069.154-.36.293-.548.294-3.055.019-6.11.019-9.164-.002-.2-.001-.4-.216-.598-.334-.325-.194-.647-.557-.976-.562-2.69-.047-5.383-.028-8.075-.023-.62.002-.964.339-.984.945-.024.768-.028 1.539.007 2.306.03.63.357.908.999.917.897.012 2.38.02 3.275-.001a.552.552 0 01.17.013h-.17v4.116H2.995c-1.302 0-1.592.279-1.592 1.544.002 4.615.002 9.233.006 13.85 0 1.172.32 1.494 1.509 1.494 6.326.004 12.652.004 18.978-.002 1.274-.001 1.558-.301 1.56-1.586.002-4.57 0-9.139.002-13.708 0-1.313-.279-1.592-1.621-1.594-2.98-.002-5.958 0-8.938 0v-4.116c.705-.019 1.979.033 2.678-.03.3-.028.708-.198.841-.433.222-.39.481-.475.873-.473 2.948.007 5.897.007 8.845 0 .37-.002.608.072.81.451.127.239.536.455.823.459 2.735.033 5.47.033 8.203-.002.282-.004.68-.231.817-.472.212-.371.464-.436.828-.434 2.733.01 5.468.002 8.201.031.211-.002.418.243.631.365zm11.212 6.814c1.497.004 2.011.505 2.013 1.975.006 2.886.008 5.771.002 8.657-.002 1.424-.542 1.97-1.962 1.972-4.785.005-9.573.005-14.359 0-1.255-.002-1.793-.536-1.799-1.809-.011-3.03-.011-6.06.002-9.09.005-1.165.512-1.685 1.672-1.694 2.453-.019 4.905-.006 7.36-.006v-.007c2.357 0 4.715-.004 7.07.002zm-38.167 0c1.497.004 2.012.505 2.013 1.975.006 2.886.008 5.771.002 8.657-.002 1.424-.542 1.97-1.962 1.972-4.785.005-9.573.005-14.359 0-1.255-.002-1.793-.536-1.799-1.809-.01-3.03-.01-6.06.002-9.09.006-1.165.512-1.685 1.672-1.694 2.454-.019 4.906-.006 7.36-.006v-.007c2.355 0 4.713-.004 7.07.002z" fill="#001E42"/></svg>