<svg width="76" height="70" fill="none" xmlns="http://www.w3.org/2000/svg"><path fill="#fff" d="M0 0h76v70H0z"/><path fill="#00FEFF" d="M13 17h63v53H13z"/><path d="M30.675 57.144c-8.568 0-17.135.002-25.703-.002-1.962-.001-3.58-1.263-3.908-3.024-.423-2.27 1.3-4.333 3.702-4.4 1.099-.03 2.2-.007 3.299-.007H56.33c1.525 0 2.776.54 3.578 1.85 1.472 2.409-.26 5.44-3.163 5.569-.523.022-1.047.007-1.57.007h-24.5v.007zm16.067-5.918c-1.251-.004-2.267 1-2.26 2.235.006 1.206 1.015 2.203 2.238 2.21 1.236.008 2.278-1.023 2.266-2.241-.01-1.21-1.02-2.2-2.244-2.204zm7.755 2.232a2.218 2.218 0 00-2.202-2.23c-1.253-.016-2.283.98-2.286 2.208-.003 1.233 1.017 2.242 2.262 2.236a2.235 2.235 0 002.226-2.214zM22.855 41.536c-1.33-2.538-.984-6.884 2.233-9.607 3.134-2.652 7.893-2.658 11.008.01 3.198 2.738 3.91 7.343 1.668 10.834-2.39 3.72-6.815 4.545-9.763 3.453.108-.124.196-.239.298-.34 1.293-1.281 2.59-2.56 3.882-3.842.763-.757.764-1.422-.002-2.183a377.607 377.607 0 00-2.78-2.738c-.672-.654-1.383-.653-2.059.01-1.375 1.347-2.741 2.703-4.11 4.053-.11.109-.226.212-.375.35zM48.212 11.7a71232.21 71232.21 0 01-9.367 9.227c1.021.346 1.954.66 2.884.98.95.329 1.6.961 1.904 1.915.214.67.147 1.312-.373 1.827-.526.52-1.207.59-1.855.347-2.037-.765-4.073-1.54-6.072-2.395-.965-.413-1.523-1.192-1.54-2.32a245.91 245.91 0 00-.204-6.515c-.027-.654.173-1.17.636-1.625 2.151-2.117 4.291-4.245 6.443-6.362.768-.754 1.803-.67 2.734.23 1.097 1.062 2.172 2.147 3.26 3.216.485.476.982.935 1.55 1.475zm-20.217-1.65c.138.916.26 1.74.391 2.619-.155.007-.373.025-.59.025h-16.49c-2.006 0-2.945.932-2.945 2.915l.002 32.596v.71H5.635v-.625c0-10.952 0-21.903.002-32.855 0-3.188 2.237-5.415 5.453-5.417 5.496-.003 10.993.007 16.489.013.17-.001.341.015.416.02z" fill="#001E42"/><path d="M45.116 22.572c-.564-1.11-1.53-1.936-2.945-2.458.849-.81 1.635-1.538 2.398-2.29 2.716-2.677 5.417-5.37 8.14-8.042 1.472-1.443 3.226-1.905 5.183-1.172 1.933.723 2.953 2.194 3.095 4.22.077 1.079-.195 2.119-.903 2.954-.78.92-1.663 1.754-2.608 2.736-.506-.55-.932-1.08-1.424-1.538-1.193-1.111-2.895-1.395-4.209-.698-.8.424-1.397 1.069-1.834 1.863a1.178 1.178 0 01-.443.452c-.868.467-1.538 1.117-2.003 1.979-.071.132-.149.278-.264.366-.708.54-1.425 1.065-2.183 1.628z" fill="#001E42"/><path d="M46.745 25.05c-.385-1.502.888-2.784 2.474-2.4-.186-.727-.099-1.348.453-1.908.56-.567 1.187-.657 1.95-.493 0-.13.017-.214-.004-.287-.257-.94.305-1.564 1.003-2.025.567-.375 1.429-.296 2.041.27a76.807 76.807 0 013.415 3.353c.58.607.69 1.523.305 2.062-.586.822-1.127 1.22-2.101.994-.062-.014-.13-.002-.196-.002.066 1.85-.448 2.363-2.434 2.45.063 1.808-.754 2.61-2.45 2.367 0 .1-.018.197.003.286.215.93-.28 1.54-.99 1.987-.709.445-1.477.284-2.041-.23a59.805 59.805 0 01-3.479-3.434c-.523-.56-.697-1.326-.248-2.017.48-.738 1.097-1.253 2.1-.975.047.013.103.002.2.002zm9.026 4.471v19.387h-2.673c-.01-.199-.025-.383-.025-.568-.001-5.259.003-10.517-.008-15.776 0-.577.237-.906.72-1.25.736-.523 1.353-1.207 1.986-1.793zm-10.915 1.336l-4.564 4.495c-1.113-3.245-3.33-5.465-6.71-6.64.362-.368.681-.696 1.005-1.02.466-.464.948-.914 1.398-1.394.234-.25.44-.301.77-.167 1.206.495 2.416.989 3.648 1.416.58.2 1.217.241 1.824.37.147.031.366.098.405.202.378.994 1.169 1.657 1.89 2.38.12.122.233.249.334.358zm-14.51-20.091c.18-.339.291-.743.551-1.004 2.114-2.128 4.257-4.227 6.388-6.338.349-.345.767-.459 1.242-.415 1.053.096 2.024 1.05 2.024 2.097 0 .375-.156.848-.414 1.11-2.117 2.149-4.274 4.258-6.42 6.378-.375.372-.83.48-1.346.383-1.073-.2-1.909-1.14-2.025-2.211zM22.28 24.223l-8.802-8.91-.01 12.615 3.628-1.526 2.2 4.554 2.07-.977-2.157-4.465 3.07-1.291z" fill="#001E42"/></svg>